<?xml version="1.0" standalone="no"?>
<!DOCTYPE svg PUBLIC "-//W3C//DTD SVG 20010904//EN"
 "http://www.w3.org/TR/2001/REC-SVG-20010904/DTD/svg10.dtd">
<svg version="1.0" xmlns="http://www.w3.org/2000/svg"
 width="1000.000000pt" height="1000.000000pt" viewBox="0 0 1000.000000 1000.000000"
 preserveAspectRatio="xMidYMid meet">
<metadata>
Created by potrace 1.11, written by Peter Selinger 2001-2013
</metadata>
<g transform="translate(0.000000,1000.000000) scale(0.100000,-0.100000)"
fill="#000000" stroke="none">
<path d="M4131 9688 c-74 -172 -214 -500 -311 -728 -468 -1096 -606 -1417
-835 -1955 -136 -319 -262 -614 -280 -655 -18 -41 -79 -183 -135 -315 -56
-132 -110 -258 -120 -280 -9 -22 -48 -112 -85 -200 -37 -88 -122 -286 -188
-440 -164 -383 -298 -729 -286 -739 2 -2 47 7 99 20 52 13 217 53 365 88 149
36 371 90 495 119 124 30 351 85 505 121 154 36 367 87 473 112 106 25 195 44
198 41 10 -9 -157 -327 -168 -321 -6 4 -8 2 -4 -4 9 -15 -63 -164 -76 -156 -7
4 -8 2 -4 -4 9 -14 -65 -163 -77 -155 -6 3 -7 1 -3 -5 6 -10 -185 -395 -709
-1427 -89 -176 -269 -531 -400 -790 -131 -259 -327 -645 -435 -860 -109 -214
-241 -474 -293 -577 -51 -103 -98 -184 -102 -180 -5 4 -5 2 -1 -5 4 -7 -5 -34
-19 -60 -14 -26 -52 -99 -85 -162 -33 -63 -65 -120 -71 -128 -6 -7 -9 -13 -6
-13 3 0 63 62 133 138 70 75 153 164 184 197 31 33 155 166 275 295 121 129
319 341 440 470 121 129 272 291 335 360 63 69 120 129 126 135 18 17 420 448
447 479 10 11 51 55 90 96 73 76 301 320 411 440 33 36 92 99 131 140 39 41
199 212 355 380 156 168 314 337 351 375 36 39 134 143 216 232 83 89 246 264
364 390 117 125 269 289 338 363 70 74 160 170 202 215 42 44 166 177 276 295
110 118 416 447 681 730 265 283 479 516 478 518 -2 2 -138 -22 -302 -53 -165
-31 -477 -89 -694 -130 -217 -40 -539 -101 -715 -134 -176 -34 -326 -61 -333
-61 -10 0 -9 6 5 24 10 14 108 143 218 287 281 370 571 751 739 974 79 105
197 260 262 345 196 259 355 467 474 625 63 83 312 411 554 730 643 848 645
850 735 970 46 61 89 118 97 128 13 16 -87 17 -2084 17 l-2098 0 -133 -312z"/>
</g>
</svg>
