<svg style="position: absolute; width: 0; height: 0;" width="0" height="0" version="1.1" xmlns="http://www.w3.org/2000/svg" xmlns:xlink="http://www.w3.org/1999/xlink">
<defs>
<symbol id="icon-envelope-o" viewBox="0 0 32 32">
<title>envelope-o</title>
<path class="path1" d="M29.714 26.857v-13.714q-0.571 0.643-1.232 1.179-4.786 3.679-7.607 6.036-0.911 0.768-1.482 1.196t-1.545 0.866-1.83 0.438h-0.036q-0.857 0-1.83-0.438t-1.545-0.866-1.482-1.196q-2.821-2.357-7.607-6.036-0.661-0.536-1.232-1.179v13.714q0 0.232 0.17 0.402t0.402 0.17h26.286q0.232 0 0.402-0.17t0.17-0.402zM29.714 8.089v-0.438t-0.009-0.232-0.054-0.223-0.098-0.161-0.161-0.134-0.25-0.045h-26.286q-0.232 0-0.402 0.17t-0.17 0.402q0 3 2.625 5.071 3.446 2.714 7.161 5.661 0.107 0.089 0.625 0.527t0.821 0.67 0.795 0.563 0.902 0.491 0.768 0.161h0.036q0.357 0 0.768-0.161t0.902-0.491 0.795-0.563 0.821-0.67 0.625-0.527q3.714-2.946 7.161-5.661 0.964-0.768 1.795-2.063t0.83-2.348zM32 7.429v19.429q0 1.179-0.839 2.018t-2.018 0.839h-26.286q-1.179 0-2.018-0.839t-0.839-2.018v-19.429q0-1.179 0.839-2.018t2.018-0.839h26.286q1.179 0 2.018 0.839t0.839 2.018z"></path>
</symbol>
<symbol id="icon-twitter" viewBox="0 0 30 32">
<title>twitter</title>
<path class="path1" d="M28.929 7.286q-1.196 1.75-2.893 2.982 0.018 0.25 0.018 0.75 0 2.321-0.679 4.634t-2.063 4.437-3.295 3.759-4.607 2.607-5.768 0.973q-4.839 0-8.857-2.589 0.625 0.071 1.393 0.071 4.018 0 7.161-2.464-1.875-0.036-3.357-1.152t-2.036-2.848q0.589 0.089 1.089 0.089 0.768 0 1.518-0.196-2-0.411-3.313-1.991t-1.313-3.67v-0.071q1.214 0.679 2.607 0.732-1.179-0.786-1.875-2.054t-0.696-2.75q0-1.571 0.786-2.911 2.161 2.661 5.259 4.259t6.634 1.777q-0.143-0.679-0.143-1.321 0-2.393 1.688-4.080t4.080-1.688q2.5 0 4.214 1.821 1.946-0.375 3.661-1.393-0.661 2.054-2.536 3.179 1.661-0.179 3.321-0.893z"></path>
</symbol>
<symbol id="icon-github" viewBox="0 0 27 32">
<title>github</title>
<path class="path1" d="M13.714 2.286q3.732 0 6.884 1.839t4.991 4.991 1.839 6.884q0 4.482-2.616 8.063t-6.759 4.955q-0.482 0.089-0.714-0.125t-0.232-0.536q0-0.054 0.009-1.366t0.009-2.402q0-1.732-0.929-2.536 1.018-0.107 1.83-0.321t1.679-0.696 1.446-1.188 0.946-1.875 0.366-2.688q0-2.125-1.411-3.679 0.661-1.625-0.143-3.643-0.5-0.161-1.446 0.196t-1.643 0.786l-0.679 0.429q-1.661-0.464-3.429-0.464t-3.429 0.464q-0.286-0.196-0.759-0.482t-1.491-0.688-1.518-0.241q-0.804 2.018-0.143 3.643-1.411 1.554-1.411 3.679 0 1.518 0.366 2.679t0.938 1.875 1.438 1.196 1.679 0.696 1.83 0.321q-0.696 0.643-0.875 1.839-0.375 0.179-0.804 0.268t-1.018 0.089-1.17-0.384-0.991-1.116q-0.339-0.571-0.866-0.929t-0.884-0.429l-0.357-0.054q-0.375 0-0.518 0.080t-0.089 0.205 0.161 0.25 0.232 0.214l0.125 0.089q0.393 0.179 0.777 0.679t0.563 0.911l0.179 0.411q0.232 0.679 0.786 1.098t1.196 0.536 1.241 0.125 0.991-0.063l0.411-0.071q0 0.679 0.009 1.58t0.009 0.973q0 0.321-0.232 0.536t-0.714 0.125q-4.143-1.375-6.759-4.955t-2.616-8.063q0-3.732 1.839-6.884t4.991-4.991 6.884-1.839zM5.196 21.982q0.054-0.125-0.125-0.214-0.179-0.054-0.232 0.036-0.054 0.125 0.125 0.214 0.161 0.107 0.232-0.036zM5.75 22.589q0.125-0.089-0.036-0.286-0.179-0.161-0.286-0.054-0.125 0.089 0.036 0.286 0.179 0.179 0.286 0.054zM6.286 23.393q0.161-0.125 0-0.339-0.143-0.232-0.304-0.107-0.161 0.089 0 0.321t0.304 0.125zM7.036 24.143q0.143-0.143-0.071-0.339-0.214-0.214-0.357-0.054-0.161 0.143 0.071 0.339 0.214 0.214 0.357 0.054zM8.054 24.589q0.054-0.196-0.232-0.286-0.268-0.071-0.339 0.125t0.232 0.268q0.268 0.107 0.339-0.107zM9.179 24.679q0-0.232-0.304-0.196-0.286 0-0.286 0.196 0 0.232 0.304 0.196 0.286 0 0.286-0.196zM10.214 24.5q-0.036-0.196-0.321-0.161-0.286 0.054-0.25 0.268t0.321 0.143 0.25-0.25z"></path>
</symbol>
<symbol id="icon-linkedin" viewBox="0 0 27 32">
<title>linkedin</title>
<path class="path1" d="M6.232 11.161v17.696h-5.893v-17.696h5.893zM6.607 5.696q0.018 1.304-0.902 2.179t-2.42 0.875h-0.036q-1.464 0-2.357-0.875t-0.893-2.179q0-1.321 0.92-2.188t2.402-0.866 2.375 0.866 0.911 2.188zM27.429 18.714v10.143h-5.875v-9.464q0-1.875-0.723-2.938t-2.259-1.063q-1.125 0-1.884 0.616t-1.134 1.527q-0.196 0.536-0.196 1.446v9.875h-5.875q0.036-7.125 0.036-11.554t-0.018-5.286l-0.018-0.857h5.875v2.571h-0.036q0.357-0.571 0.732-1t1.009-0.929 1.554-0.777 2.045-0.277q3.054 0 4.911 2.027t1.857 5.938z"></path>
</symbol>
<symbol id="icon-lastfm" viewBox="0 0 32 32">
<title>lastfm</title>
<path class="path1" d="M23.071 12.571q0 0.107 0.179 0.732 0.179 0.518 0.446 0.884t0.732 0.607 0.786 0.357 0.982 0.295q5.804 1.625 5.804 5.929 0 2.607-1.884 4.33t-4.545 1.723q-1.054 0-1.991-0.33t-1.634-0.813-1.375-1.33-1.125-1.563-0.955-1.848-0.777-1.839-0.705-1.902-0.634-1.696q-0.571-1.446-1.098-2.384t-1.313-1.723-1.857-1.143-2.536-0.357q-1.714 0-3.268 0.991t-2.464 2.58-0.911 3.304q0 2.857 1.902 4.991t4.705 2.134q3.161 0 4.607-1.696 1-1.125 1.482-2.071l1.5 2.714q-0.268 0.607-0.786 1.25l0.018 0.018q-2.339 2.714-6.929 2.714-2.625 0-4.813-1.411t-3.402-3.705-1.214-4.902q0-1.875 0.777-3.679t2.071-3.152 3.071-2.17 3.652-0.821q1.554 0 2.839 0.339t2.205 0.893 1.696 1.429 1.295 1.768 1.045 2.089 0.902 2.223 0.893 2.33 0.982 2.268q1.714 3.571 4.161 3.571 1.446 0 2.473-0.866t1.027-2.295q0-0.75-0.339-1.286t-0.902-0.821-1.295-0.563-1.509-0.482-1.563-0.607-1.446-0.929-1.161-1.464-0.696-2.188q-0.054-0.286-0.054-0.589 0-1.964 1.563-3.429t3.545-1.393q1.393 0.054 2.152 0.259t1.616 0.955h-0.018q0.214 0.196 0.411 0.438t0.464 0.643 0.339 0.491l-2.304 1.768q-0.464-0.875-0.964-1.25v-0.018q-0.411-0.375-1.732-0.375-0.875 0-1.5 0.589t-0.625 1.482z"></path>
</symbol>
<symbol id="icon-get-pocket" viewBox="0 0 31 32">
<title>get-pocket</title>
<path class="path1" d="M27.946 2.286q1.161 0 1.964 0.813t0.804 1.973v9.268q0 3.143-1.214 6t-3.259 4.911-4.893 3.259-5.973 1.205q-3.143 0-5.991-1.205t-4.902-3.259-3.268-4.911-1.214-6v-9.268q0-1.143 0.821-1.964t1.964-0.821h25.161zM15.375 21.286q0.839 0 1.464-0.589l7.214-6.929q0.661-0.625 0.661-1.518 0-0.875-0.616-1.491t-1.491-0.616q-0.839 0-1.464 0.589l-5.768 5.536-5.768-5.536q-0.625-0.589-1.446-0.589-0.875 0-1.491 0.616t-0.616 1.491q0 0.911 0.643 1.518l7.232 6.929q0.589 0.589 1.446 0.589z"></path>
</symbol>
</defs>
</svg>
